Simulation
nRows=44
nColumns=15
endheader
time  TH_x TH_y TH_z SC_y  SC_z  SC_x  AC_y  AC_z  AC_x  GH_y  GH_z  GH_yy  EL_x  PS_y
0.0  0.000000  0.000000  0.000000  -29.703714713594547  0.2520797717601275  -5.403005929721486  52.406589609533384  10.91525575588716  -4.024707787294015  95.98338309279693  2.4065412273064535  -68.19161413696763  22.797145654909876  0.000000
0.031  0.000000  0.000000  0.000000  -29.68622326901053  0.10405720760296903  -4.324274359401819  52.39916445501736  10.213100873839725  -4.915738280888523  95.00589072331172  2.5364678957885434  -67.22851608817147  22.767479144810586  0.000000
0.062  0.000000  0.000000  0.000000  -29.650240472713694  -0.04455071003861989  -3.2862101914746877  52.39573455007362  9.522541064697112  -5.775213902991586  94.13336031574032  2.6850025013978662  -66.37662370577281  22.73294409476231  0.000000
0.093  0.000000  0.000000  0.000000  -29.61298070666732  -0.1906969239051367  -2.298511798636909  52.39486386162351  8.85473684383912  -6.5920117886720995  92.95300915854101  2.8643810539582604  -65.24337850917195  22.67777507826426  0.000000
0.124  0.000000  0.000000  0.000000  -29.57878919952023  -0.3301976704621449  -1.3681754322673154  52.39663167981286  8.217872060649121  -7.359435312112217  91.2093061536017  3.0847904642191315  -63.59181491216514  22.591797384144183  0.000000
0.155  0.000000  0.000000  0.000000  -29.559012014121393  -0.4600869219336445  -0.4996716864790161  52.401216035468465  7.617800872009064  -8.072113085396431  88.7546726444829  3.35866036554019  -61.29513877479963  22.470661499512328  0.000000
0.186  0.000000  0.000000  0.000000  -29.557319134078817  -0.5775531271905272  0.30492197178424346  52.40819315563872  7.058939658797031  -8.726564462117542  85.62572844037257  3.697755467679568  -58.40846312351399  22.315899855203586  0.000000
0.217  0.000000  0.000000  0.000000  -29.576616491201097  -0.6803289524383298  1.045217313446239  52.418968386374125  6.544256049299174  -9.320227469923877  81.9629797579177  4.113742897852934  -55.0859837807779  22.13376895084711  0.000000
0.248  0.000000  0.000000  0.000000  -29.61596448771438  -0.7667812452087898  1.7222037616815102  52.43429377567629  6.075666683844745  -9.851431335840466  77.98309723096226  4.616641142302963  -51.554640627560566  21.933654950172414  0.000000
0.279  0.000000  0.000000  0.000000  -29.67210700859195  -0.8361540134222176  2.3377559380661275  52.456346660504366  5.65378660762327  -10.319070749748697  73.89702582517926  5.213414532508988  -48.029603483381145  21.72722655318677  0.000000
0.31  0.000000  0.000000  0.000000  -29.74040091673815  -0.8886197384840452  2.8941468402081383  52.487292590768014  5.278014985433195  -10.72235908393837  69.87381787106851  5.90754544692523  -44.68029155226432  21.528466020097532  0.000000
0.34099999999999997  0.000000  0.000000  0.000000  -29.81595207974745  -0.9252489525177398  3.3937793886800485  52.53021083472489  4.946185182317658  -11.060563103383078  66.01646914577451  6.6995216988665245  -41.60590934521858  21.35288474093624  0.000000
0.372  0.000000  0.000000  0.000000  -29.89454833399768  -0.9476167132001085  3.8391319255393386  52.588535324545305  4.654742351471496  -11.33281707258905  62.36845478224995  7.587904992828798  -38.84253685368029  21.21677270356052  0.000000
0.403  0.000000  0.000000  0.000000  -29.972545798510012  -0.9572346485599477  4.232853514606996  52.66572184822862  4.3989680220070175  -11.538217495528011  58.931463245227974  8.570377436217493  -36.38042788517496  21.133799337955573  0.000000
0.434  0.000000  0.000000  0.000000  -30.046778762482273  -0.9548702342989335  4.577977739590035  52.7644513431222  4.17352480216438  -11.676674957544048  55.687526324216265  9.64443048047586  -34.18498433427514  21.111242359014508  0.000000
0.46499999999999997  0.000000  0.000000  0.000000  -30.114007016736267  -0.939877383774988  4.87798006167657  52.88596582468068  3.9734055437323765  -11.749830419816988  52.61697381893758  10.80757005519744  -32.21434567907364  21.146407078109817  0.000000
0.496  0.000000  0.000000  0.000000  -30.17131131748896  -0.9101834695306601  5.137647018497091  53.02895930176049  3.7950916887592436  -11.761961539076434  49.707609074194906  12.057351356443586  -30.429249761621296  21.226293838277346  0.000000
0.527  0.000000  0.000000  0.000000  -30.217137325856235  -0.8627679779358048  5.363492623972745  53.188736001636514  3.637578865208393  -11.72045321560775  46.958719729378615  13.391491953391103  -28.800530220414224  21.3309574748962  0.000000
0.558  0.000000  0.000000  0.000000  -30.25234107203405  -0.7945334146126768  5.564327752769537  53.357871697239105  3.5025117971821675  -11.636230014458173  44.38048793518968  14.807645573115858  -27.312622348574298  21.43885563689053  0.000000
0.589  0.000000  0.000000  0.000000  -30.28050963279416  -0.7029837386129569  5.7499379161226125  53.527232370893365  3.394397145321717  -11.522095264752975  41.98989015282254  16.30271457273556  -25.962976245627075  21.532351058015546  0.000000
0.62  0.000000  0.000000  0.000000  -30.306636389642296  -0.5872685495684  5.926661140008373  53.68869196290611  3.320647143611574  -11.388595261222717  39.80160776395985  17.87261667679233  -24.754952870214705  21.59999535046833  0.000000
0.651  0.000000  0.000000  0.000000  -30.33478305251016  -0.4487965896011659  6.100754850943218  53.83788390395333  3.285772738187098  -11.244260314631982  37.820009474941216  19.512057063403038  -23.689835848208663  21.63652537985687  0.000000
0.6819999999999999  0.000000  0.000000  0.000000  -30.36654339194396  -0.29072622370450935  6.2842762454993935  53.97499256870006  3.2872047921228527  -11.098052369805483  36.03828385989225  21.214265594809156  -22.76394070809147  21.642304222494495  0.000000
0.713  0.000000  0.000000  0.000000  -30.39964193766352  -0.11735295372656468  6.4924192319476814  54.10394118995216  3.3192805459159014  -10.958699004852445  34.442658184265284  22.970139963939403  -21.9705110337607  21.621361099003096  0.000000
0.744  0.000000  0.000000  0.000000  -30.42890918471311  0.06584812022887414  6.739486455940645  54.23053899239578  3.3760478131679266  -10.833716560356375  33.01646363698273  24.76711451462754  -21.301337171399283  21.578897879841023  0.000000
0.775  0.000000  0.000000  0.000000  -30.44856418214095  0.2531908564170946  7.0384912376016056  54.36026248681003  3.4507863938302967  -10.729418493903605  31.743948470464943  26.58815446888235  -20.7487475055883  21.519079529105465  0.000000
0.806  0.000000  0.000000  0.000000  -30.45333993606962  0.4404872502903623  7.4008313380794855  54.497130135768415  3.536495527220028  -10.651017678987255  30.612558460475768  28.412463287589773  -20.30690574927117  21.443402535499228  0.000000
0.837  0.000000  0.000000  0.000000  -30.44022752662903  0.625280239528917  7.835486300449603  54.64315474891862  3.6265510742400617  -10.602269403388652  29.61209560111396  30.217510324734494  -19.970479720381277  21.35079620014237  0.000000
0.868  0.000000  0.000000  0.000000  -30.408990609849145  0.8068402343910632  8.348438235443993  54.79842481141285  3.714472459011778  -10.585253118327756  28.733073885789377  31.981389737245095  -19.733812289383486  21.238443285329307  0.000000
0.899  0.000000  0.000000  0.000000  -30.362120590300442  0.9859802404797842  8.942234176873505  54.96153646975198  3.794076192801597  -10.600015656399165  27.965007111677288  33.685253379060455  -19.589639025914902  21.10303434857266  0.000000
0.9299999999999999  0.000000  0.000000  0.000000  -30.304801916602162  1.1648238716668278  9.615880293775673  55.13015211418605  3.8598307230293667  -10.644334732647934  27.29586259936874  35.315191637778554  -19.529269789384774  20.941738178018547  0.000000
0.961  0.000000  0.000000  0.000000  -30.24477968825369  1.3467131046386214  10.365014242094993  55.301435148652125  3.907428219627608  -10.71349847649171  26.71265917519549  36.86290849480634  -19.54320874540924  20.75273905048261  0.000000
0.992  0.000000  0.000000  0.000000  -30.19175623600459  1.5359499271209653  11.182172515196546  55.47279431797544  3.934435518221901  -10.8000445395742  26.202192478782436  38.32560966121965  -19.621413303983946  20.535676884695448  0.000000
1.023  0.000000  0.000000  0.000000  -30.156095210841073  1.7374232959567402  12.05738385256415  55.64289468579874  3.9407836394967126  -10.893700803006137  25.750918151587932  39.70532913567527  -19.752598993107643  20.292107301548047  0.000000
1.054  0.000000  0.000000  0.000000  -30.14723483924786  1.9558081998678083  12.978792553045437  55.81253356548706  3.9291100635181575  -10.981387970483716  25.343156017735136  41.0079870384768  -19.92195999323411  20.026332873192544  0.000000
1.085  0.000000  0.000000  0.000000  -30.172253865932948  2.1947153360713765  13.932996216175418  55.985105979353484  3.9048362598693567  -11.047583207080482  24.9595176789507  42.24226919237104  -20.109331642770066  19.746012624239324  0.000000
1.116  0.000000  0.000000  0.000000  -30.235127721971786  2.456101979843799  14.905208885500688  56.166018678384056  3.8758916075187204  -11.075354794482006  24.577102817576762  43.41837434821621  -20.28936293096682  19.462268375192096  0.000000
1.147  0.000000  0.000000  0.000000  -30.337202321508578  2.7401861109621777  15.879469144005155  56.36098235985903  3.852074092778621  -11.048286771345662  24.172589210707525  44.54683254488576  -20.4349915399909  19.188382131866522  0.000000
1.178  0.000000  0.000000  0.000000  -30.478550238654343  3.0457436378358085  16.839047338911985  56.573750727199425  3.844064422137366  -10.952669626235728  23.727160716385963  45.63751253525844  -20.522944691404966  18.937270726501907  0.000000
1.209  0.000000  0.000000  0.000000  -30.659329547144562  3.370599267676918  17.76718704870182  56.80443702546418  3.8621782608071697  -10.77935407827206  23.23077942341375  46.698912955315365  -20.53886690652583  18.71865656833941  0.000000
1.24  0.000000  0.000000  0.000000  -30.880284566180173  3.712193793059275  18.64824821405544  57.049349620927615  3.915052064955124  -10.524608452585575  22.683292348402038  47.73771949801915  -20.479331472744605  18.537239676227824  0.000000
1.271  0.000000  0.000000  0.000000  -31.142258015092757  4.067887738065253  19.46894991428879  57.30235130510942  4.0087457234872925  -10.189899946155446  22.092171952050805  48.75854383882479  -20.35055940297269  18.39269635261503  0.000000
1.302  0.000000  0.000000  0.000000  -31.444715851030598  4.4347839769787925  20.219384687683807  57.55673109326126  4.146471147210357  -9.780768913746448  21.468573260951125  49.76380711892035  -20.16507240222601  18.280986027888797  0.000000
1.333  0.000000  0.000000  0.000000  -31.784326803599953  4.809526888271682  20.89356166995735  57.806639028711515  4.32875222301841  -9.305544557413512  20.824133613579548  50.753674939276095  -19.93857379474731  18.19608574998145  0.000000
